<svg width="30" height="39.7" xmlns="http://www.w3.org/2000/svg">
 <g>
  <title>Caller</title>
  <g id="svg_1">
   <path d="m10.0857,13.1995c-5.44655,3.14453 2.86367,18.724 8.82368,15.283c1.0584,1.83322 4.46756,7.73807 5.52596,9.57124c-2.51464,1.45186 -4.64315,2.36711 -7.55853,0.70054c-8.09458,-4.6273 -17.0046,-20.0543 -16.7511,-29.2558c0.08804,-3.19599 1.971,-4.44824 4.43399,-5.87024c1.0584,1.83316 4.46756,7.73801 5.52595,9.57124l0.00006,0.00002l-0.00001,0z" fill="#ffffff" id="_152222248"/>
   <path d="m12.3704,12.9399c-0.58849,0.33978 -1.3458,0.13697 -1.68564,-0.45158l-5.2095,-9.02316c-0.33984,-0.58862 -0.13703,-1.34586 0.45152,-1.6857l2.73799,-1.58075c0.58855,-0.33984 1.34598,-0.13685 1.68576,0.4517l5.2095,9.0231c0.33978,0.5885 0.13691,1.3458 -0.45158,1.68558l-2.73805,1.58081z" fill="#ffffff" id="_150519168"/>
   <path d="m26.6023,37.5904c-0.58849,0.33978 -1.3458,0.13697 -1.68564,-0.45164l-5.2095,-9.02316c-0.33984,-0.58856 -0.13703,-1.34586 0.45152,-1.68564l2.73799,-1.58081c0.58855,-0.33978 1.34598,-0.13679 1.68576,0.4517l5.2095,9.0231c0.33978,0.58856 0.13691,1.34586 -0.45158,1.68564l-2.73805,1.58081z" fill="#ffffff" id="_226148072"/>
  </g>
 </g>
</svg>
